<mxfile host="app.diagrams.net" modified="2024-02-05T16:58:38.439Z" agent="Mozilla/5.0 (X11; Linux x86_64) AppleWebKit/537.36 (KHTML, like Gecko) Chrome/121.0.0.0 Safari/537.36" etag="4hlKXewC7bN4t0U9f_vD" version="23.1.1" type="github">
  <diagram name="Page-1" id="6v6yY1V_mVX7g_LT4Bdr">
    <mxGraphModel dx="2216" dy="1819" grid="1" gridSize="10" guides="1" tooltips="1" connect="1" arrows="1" fold="1" page="1" pageScale="1" pageWidth="850" pageHeight="1100" math="0" shadow="0">
      <root>
        <mxCell id="0" />
        <mxCell id="1" parent="0" />
        <mxCell id="reH3xQaTDlYnY1mvFlY1-1" value="BLA2R235A35C" style="sketch=0;points=[[0.015,0.015,0],[0.985,0.015,0],[0.985,0.985,0],[0.015,0.985,0],[0.25,0,0],[0.5,0,0],[0.75,0,0],[1,0.25,0],[1,0.5,0],[1,0.75,0],[0.75,1,0],[0.5,1,0],[0.25,1,0],[0,0.75,0],[0,0.5,0],[0,0.25,0]];verticalLabelPosition=bottom;html=1;verticalAlign=top;aspect=fixed;align=center;pointerEvents=1;shape=mxgraph.cisco19.rect;prIcon=l3_modular;fillColor=#FAFAFA;strokeColor=#005073;" vertex="1" parent="1">
          <mxGeometry x="94" y="-120" width="50" height="73" as="geometry" />
        </mxCell>
        <mxCell id="reH3xQaTDlYnY1mvFlY1-4" value="DHS2R218C28C" style="sketch=0;points=[[0.015,0.015,0],[0.985,0.015,0],[0.985,0.985,0],[0.015,0.985,0],[0.25,0,0],[0.5,0,0],[0.75,0,0],[1,0.25,0],[1,0.5,0],[1,0.75,0],[0.75,1,0],[0.5,1,0],[0.25,1,0],[0,0.75,0],[0,0.5,0],[0,0.25,0]];verticalLabelPosition=bottom;html=1;verticalAlign=top;aspect=fixed;align=center;pointerEvents=1;shape=mxgraph.cisco19.rect;prIcon=l3_modular;fillColor=#FAFAFA;strokeColor=#005073;" vertex="1" parent="1">
          <mxGeometry x="850" y="320" width="50" height="73" as="geometry" />
        </mxCell>
        <mxCell id="reH3xQaTDlYnY1mvFlY1-5" value="DPSGR203J41C" style="sketch=0;points=[[0.015,0.015,0],[0.985,0.015,0],[0.985,0.985,0],[0.015,0.985,0],[0.25,0,0],[0.5,0,0],[0.75,0,0],[1,0.25,0],[1,0.5,0],[1,0.75,0],[0.75,1,0],[0.5,1,0],[0.25,1,0],[0,0.75,0],[0,0.5,0],[0,0.25,0]];verticalLabelPosition=bottom;html=1;verticalAlign=top;aspect=fixed;align=center;pointerEvents=1;shape=mxgraph.cisco19.rect;prIcon=l3_modular;fillColor=#FAFAFA;strokeColor=#005073;" vertex="1" parent="1">
          <mxGeometry x="-130" y="270" width="50" height="73" as="geometry" />
        </mxCell>
        <mxCell id="reH3xQaTDlYnY1mvFlY1-6" value="ECCCORE" style="sketch=0;points=[[0.015,0.015,0],[0.985,0.015,0],[0.985,0.985,0],[0.015,0.985,0],[0.25,0,0],[0.5,0,0],[0.75,0,0],[1,0.25,0],[1,0.5,0],[1,0.75,0],[0.75,1,0],[0.5,1,0],[0.25,1,0],[0,0.75,0],[0,0.5,0],[0,0.25,0]];verticalLabelPosition=bottom;html=1;verticalAlign=top;aspect=fixed;align=center;pointerEvents=1;shape=mxgraph.cisco19.rect;prIcon=l3_modular;fillColor=#FAFAFA;strokeColor=#005073;" vertex="1" parent="1">
          <mxGeometry x="780" y="210" width="50" height="73" as="geometry" />
        </mxCell>
        <mxCell id="reH3xQaTDlYnY1mvFlY1-7" value="ECHGR009A45C" style="sketch=0;points=[[0.015,0.015,0],[0.985,0.015,0],[0.985,0.985,0],[0.015,0.985,0],[0.25,0,0],[0.5,0,0],[0.75,0,0],[1,0.25,0],[1,0.5,0],[1,0.75,0],[0.75,1,0],[0.5,1,0],[0.25,1,0],[0,0.75,0],[0,0.5,0],[0,0.25,0]];verticalLabelPosition=bottom;html=1;verticalAlign=top;aspect=fixed;align=center;pointerEvents=1;shape=mxgraph.cisco19.rect;prIcon=l3_modular;fillColor=#FAFAFA;strokeColor=#005073;" vertex="1" parent="1">
          <mxGeometry x="423" y="-140" width="50" height="73" as="geometry" />
        </mxCell>
        <mxCell id="reH3xQaTDlYnY1mvFlY1-10" value="EHD1R128A37C" style="sketch=0;points=[[0.015,0.015,0],[0.985,0.015,0],[0.985,0.985,0],[0.015,0.985,0],[0.25,0,0],[0.5,0,0],[0.75,0,0],[1,0.25,0],[1,0.5,0],[1,0.75,0],[0.75,1,0],[0.5,1,0],[0.25,1,0],[0,0.75,0],[0,0.5,0],[0,0.25,0]];verticalLabelPosition=bottom;html=1;verticalAlign=top;aspect=fixed;align=center;pointerEvents=1;shape=mxgraph.cisco19.rect;prIcon=l3_modular;fillColor=#FAFAFA;strokeColor=#005073;" vertex="1" parent="1">
          <mxGeometry x="786" y="-60" width="50" height="73" as="geometry" />
        </mxCell>
        <mxCell id="reH3xQaTDlYnY1mvFlY1-11" value="EPD1R108A35C" style="sketch=0;points=[[0.015,0.015,0],[0.985,0.015,0],[0.985,0.985,0],[0.015,0.985,0],[0.25,0,0],[0.5,0,0],[0.75,0,0],[1,0.25,0],[1,0.5,0],[1,0.75,0],[0.75,1,0],[0.5,1,0],[0.25,1,0],[0,0.75,0],[0,0.5,0],[0,0.25,0]];verticalLabelPosition=bottom;html=1;verticalAlign=top;aspect=fixed;align=center;pointerEvents=1;shape=mxgraph.cisco19.rect;prIcon=l3_switch;fillColor=#FAFAFA;strokeColor=#005073;" vertex="1" parent="1">
          <mxGeometry x="400" y="610" width="50" height="50" as="geometry" />
        </mxCell>
        <mxCell id="reH3xQaTDlYnY1mvFlY1-12" value="ELTGR001A01C" style="sketch=0;points=[[0.015,0.015,0],[0.985,0.015,0],[0.985,0.985,0],[0.015,0.985,0],[0.25,0,0],[0.5,0,0],[0.75,0,0],[1,0.25,0],[1,0.5,0],[1,0.75,0],[0.75,1,0],[0.5,1,0],[0.25,1,0],[0,0.75,0],[0,0.5,0],[0,0.25,0]];verticalLabelPosition=bottom;html=1;verticalAlign=top;aspect=fixed;align=center;pointerEvents=1;shape=mxgraph.cisco19.rect;prIcon=l3_switch;fillColor=#FAFAFA;strokeColor=#005073;" vertex="1" parent="1">
          <mxGeometry x="530" y="610" width="50" height="50" as="geometry" />
        </mxCell>
        <mxCell id="reH3xQaTDlYnY1mvFlY1-13" value="DNABR006A35C" style="sketch=0;points=[[0.015,0.015,0],[0.985,0.015,0],[0.985,0.985,0],[0.015,0.985,0],[0.25,0,0],[0.5,0,0],[0.75,0,0],[1,0.25,0],[1,0.5,0],[1,0.75,0],[0.75,1,0],[0.5,1,0],[0.25,1,0],[0,0.75,0],[0,0.5,0],[0,0.25,0]];verticalLabelPosition=bottom;html=1;verticalAlign=top;aspect=fixed;align=center;pointerEvents=1;shape=mxgraph.cisco19.rect;prIcon=l3_switch;fillColor=#FAFAFA;strokeColor=#005073;" vertex="1" parent="1">
          <mxGeometry x="700" y="560" width="50" height="50" as="geometry" />
        </mxCell>
        <mxCell id="reH3xQaTDlYnY1mvFlY1-14" value="INFGR203E46C" style="sketch=0;points=[[0.015,0.015,0],[0.985,0.015,0],[0.985,0.985,0],[0.015,0.985,0],[0.25,0,0],[0.5,0,0],[0.75,0,0],[1,0.25,0],[1,0.5,0],[1,0.75,0],[0.75,1,0],[0.5,1,0],[0.25,1,0],[0,0.75,0],[0,0.5,0],[0,0.25,0]];verticalLabelPosition=bottom;html=1;verticalAlign=top;aspect=fixed;align=center;pointerEvents=1;shape=mxgraph.cisco19.rect;prIcon=l3_switch;fillColor=#FAFAFA;strokeColor=#005073;" vertex="1" parent="1">
          <mxGeometry x="10" y="450" width="50" height="50" as="geometry" />
        </mxCell>
        <mxCell id="reH3xQaTDlYnY1mvFlY1-15" value="PRI1R001A40C" style="sketch=0;points=[[0.015,0.015,0],[0.985,0.015,0],[0.985,0.985,0],[0.015,0.985,0],[0.25,0,0],[0.5,0,0],[0.75,0,0],[1,0.25,0],[1,0.5,0],[1,0.75,0],[0.75,1,0],[0.5,1,0],[0.25,1,0],[0,0.75,0],[0,0.5,0],[0,0.25,0]];verticalLabelPosition=bottom;html=1;verticalAlign=top;aspect=fixed;align=center;pointerEvents=1;shape=mxgraph.cisco19.rect;prIcon=l3_modular;fillColor=#FAFAFA;strokeColor=#005073;" vertex="1" parent="1">
          <mxGeometry x="160" y="60" width="50" height="73" as="geometry" />
        </mxCell>
        <mxCell id="reH3xQaTDlYnY1mvFlY1-17" value="VET1R102A01C" style="sketch=0;points=[[0.015,0.015,0],[0.985,0.015,0],[0.985,0.985,0],[0.015,0.985,0],[0.25,0,0],[0.5,0,0],[0.75,0,0],[1,0.25,0],[1,0.5,0],[1,0.75,0],[0.75,1,0],[0.5,1,0],[0.25,1,0],[0,0.75,0],[0,0.5,0],[0,0.25,0]];verticalLabelPosition=bottom;html=1;verticalAlign=top;aspect=fixed;align=center;pointerEvents=1;shape=mxgraph.cisco19.rect;prIcon=l3_switch;fillColor=#FAFAFA;strokeColor=#005073;" vertex="1" parent="1">
          <mxGeometry x="210" y="590" width="50" height="50" as="geometry" />
        </mxCell>
        <mxCell id="reH3xQaTDlYnY1mvFlY1-18" value="QinQ" style="ellipse;shape=cloud;whiteSpace=wrap;html=1;" vertex="1" parent="1">
          <mxGeometry x="265" y="230" width="320" height="200" as="geometry" />
        </mxCell>
        <mxCell id="reH3xQaTDlYnY1mvFlY1-19" style="edgeStyle=orthogonalEdgeStyle;rounded=0;orthogonalLoop=1;jettySize=auto;html=1;entryX=0.4;entryY=0.1;entryDx=0;entryDy=0;entryPerimeter=0;endArrow=oval;endFill=1;" edge="1" parent="1" source="reH3xQaTDlYnY1mvFlY1-1" target="reH3xQaTDlYnY1mvFlY1-18">
          <mxGeometry relative="1" as="geometry">
            <Array as="points">
              <mxPoint x="120" y="10" />
              <mxPoint x="393" y="10" />
            </Array>
          </mxGeometry>
        </mxCell>
        <mxCell id="reH3xQaTDlYnY1mvFlY1-20" style="edgeStyle=orthogonalEdgeStyle;rounded=0;orthogonalLoop=1;jettySize=auto;html=1;entryX=0.25;entryY=0.25;entryDx=0;entryDy=0;entryPerimeter=0;endArrow=oval;endFill=1;" edge="1" parent="1" source="reH3xQaTDlYnY1mvFlY1-15" target="reH3xQaTDlYnY1mvFlY1-18">
          <mxGeometry relative="1" as="geometry">
            <Array as="points">
              <mxPoint x="185" y="160" />
              <mxPoint x="345" y="160" />
            </Array>
          </mxGeometry>
        </mxCell>
        <mxCell id="reH3xQaTDlYnY1mvFlY1-21" style="edgeStyle=orthogonalEdgeStyle;rounded=0;orthogonalLoop=1;jettySize=auto;html=1;endArrow=oval;endFill=1;" edge="1" parent="1" source="reH3xQaTDlYnY1mvFlY1-10">
          <mxGeometry relative="1" as="geometry">
            <mxPoint x="550" y="280" as="targetPoint" />
          </mxGeometry>
        </mxCell>
        <mxCell id="reH3xQaTDlYnY1mvFlY1-22" style="edgeStyle=orthogonalEdgeStyle;rounded=0;orthogonalLoop=1;jettySize=auto;html=1;entryX=0.16;entryY=0.55;entryDx=0;entryDy=0;entryPerimeter=0;endArrow=oval;endFill=1;" edge="1" parent="1" source="reH3xQaTDlYnY1mvFlY1-14" target="reH3xQaTDlYnY1mvFlY1-18">
          <mxGeometry relative="1" as="geometry">
            <Array as="points">
              <mxPoint x="165" y="370" />
              <mxPoint x="260" y="370" />
              <mxPoint x="260" y="340" />
            </Array>
          </mxGeometry>
        </mxCell>
        <mxCell id="reH3xQaTDlYnY1mvFlY1-23" style="edgeStyle=orthogonalEdgeStyle;rounded=0;orthogonalLoop=1;jettySize=auto;html=1;entryX=0.13;entryY=0.77;entryDx=0;entryDy=0;entryPerimeter=0;endArrow=oval;endFill=1;" edge="1" parent="1" source="reH3xQaTDlYnY1mvFlY1-17" target="reH3xQaTDlYnY1mvFlY1-18">
          <mxGeometry relative="1" as="geometry" />
        </mxCell>
        <mxCell id="reH3xQaTDlYnY1mvFlY1-24" style="edgeStyle=orthogonalEdgeStyle;rounded=0;orthogonalLoop=1;jettySize=auto;html=1;entryX=0.31;entryY=0.8;entryDx=0;entryDy=0;entryPerimeter=0;endArrow=oval;endFill=1;" edge="1" parent="1" source="reH3xQaTDlYnY1mvFlY1-11" target="reH3xQaTDlYnY1mvFlY1-18">
          <mxGeometry relative="1" as="geometry" />
        </mxCell>
        <mxCell id="reH3xQaTDlYnY1mvFlY1-25" style="edgeStyle=orthogonalEdgeStyle;rounded=0;orthogonalLoop=1;jettySize=auto;html=1;entryX=0.55;entryY=0.95;entryDx=0;entryDy=0;entryPerimeter=0;endArrow=oval;endFill=1;" edge="1" parent="1" source="reH3xQaTDlYnY1mvFlY1-12" target="reH3xQaTDlYnY1mvFlY1-18">
          <mxGeometry relative="1" as="geometry">
            <Array as="points">
              <mxPoint x="555" y="485" />
              <mxPoint x="500" y="485" />
              <mxPoint x="500" y="420" />
            </Array>
          </mxGeometry>
        </mxCell>
        <mxCell id="reH3xQaTDlYnY1mvFlY1-26" style="edgeStyle=orthogonalEdgeStyle;rounded=0;orthogonalLoop=1;jettySize=auto;html=1;entryX=0.8;entryY=0.8;entryDx=0;entryDy=0;entryPerimeter=0;endArrow=oval;endFill=1;" edge="1" parent="1" source="reH3xQaTDlYnY1mvFlY1-13" target="reH3xQaTDlYnY1mvFlY1-18">
          <mxGeometry relative="1" as="geometry">
            <Array as="points">
              <mxPoint x="590" y="488" />
              <mxPoint x="590" y="410" />
              <mxPoint x="521" y="410" />
            </Array>
          </mxGeometry>
        </mxCell>
        <mxCell id="reH3xQaTDlYnY1mvFlY1-27" style="edgeStyle=orthogonalEdgeStyle;rounded=0;orthogonalLoop=1;jettySize=auto;html=1;entryX=0.625;entryY=0.2;entryDx=0;entryDy=0;entryPerimeter=0;endArrow=oval;endFill=1;" edge="1" parent="1" source="reH3xQaTDlYnY1mvFlY1-7" target="reH3xQaTDlYnY1mvFlY1-18">
          <mxGeometry relative="1" as="geometry" />
        </mxCell>
        <mxCell id="reH3xQaTDlYnY1mvFlY1-28" style="edgeStyle=orthogonalEdgeStyle;rounded=0;orthogonalLoop=1;jettySize=auto;html=1;entryX=0.875;entryY=0.5;entryDx=0;entryDy=0;entryPerimeter=0;endArrow=oval;endFill=1;" edge="1" parent="1" source="reH3xQaTDlYnY1mvFlY1-6" target="reH3xQaTDlYnY1mvFlY1-18">
          <mxGeometry relative="1" as="geometry" />
        </mxCell>
        <mxCell id="reH3xQaTDlYnY1mvFlY1-29" style="edgeStyle=orthogonalEdgeStyle;rounded=0;orthogonalLoop=1;jettySize=auto;html=1;entryX=0.07;entryY=0.4;entryDx=0;entryDy=0;entryPerimeter=0;endArrow=oval;endFill=1;" edge="1" parent="1" source="reH3xQaTDlYnY1mvFlY1-5" target="reH3xQaTDlYnY1mvFlY1-18">
          <mxGeometry relative="1" as="geometry">
            <Array as="points">
              <mxPoint x="-10" y="307" />
              <mxPoint x="-10" y="280" />
              <mxPoint x="287" y="280" />
            </Array>
          </mxGeometry>
        </mxCell>
        <mxCell id="reH3xQaTDlYnY1mvFlY1-30" style="edgeStyle=orthogonalEdgeStyle;rounded=0;orthogonalLoop=1;jettySize=auto;html=1;entryX=0.96;entryY=0.7;entryDx=0;entryDy=0;entryPerimeter=0;endArrow=oval;endFill=1;" edge="1" parent="1" source="reH3xQaTDlYnY1mvFlY1-4" target="reH3xQaTDlYnY1mvFlY1-18">
          <mxGeometry relative="1" as="geometry">
            <Array as="points">
              <mxPoint x="572" y="380" />
            </Array>
          </mxGeometry>
        </mxCell>
        <mxCell id="reH3xQaTDlYnY1mvFlY1-74" style="edgeStyle=orthogonalEdgeStyle;rounded=0;orthogonalLoop=1;jettySize=auto;html=1;exitX=0.5;exitY=0;exitDx=0;exitDy=0;exitPerimeter=0;fillColor=#d80073;strokeColor=#A50040;endArrow=oval;endFill=1;" edge="1" parent="1" source="reH3xQaTDlYnY1mvFlY1-31" target="reH3xQaTDlYnY1mvFlY1-62">
          <mxGeometry relative="1" as="geometry" />
        </mxCell>
        <mxCell id="reH3xQaTDlYnY1mvFlY1-31" value="BLA2R237A34F" style="sketch=0;points=[[0.015,0.015,0],[0.985,0.015,0],[0.985,0.985,0],[0.015,0.985,0],[0.25,0,0],[0.5,0,0],[0.75,0,0],[1,0.25,0],[1,0.5,0],[1,0.75,0],[0.75,1,0],[0.5,1,0],[0.25,1,0],[0,0.75,0],[0,0.5,0],[0,0.25,0]];verticalLabelPosition=bottom;html=1;verticalAlign=top;aspect=fixed;align=center;pointerEvents=1;shape=mxgraph.cisco19.rect;prIcon=firewall;fillColor=#FAFAFA;strokeColor=#005073;" vertex="1" parent="1">
          <mxGeometry x="194" y="-120" width="64" height="50" as="geometry" />
        </mxCell>
        <mxCell id="reH3xQaTDlYnY1mvFlY1-32" value="DHS2R218B31F" style="sketch=0;points=[[0.015,0.015,0],[0.985,0.015,0],[0.985,0.985,0],[0.015,0.985,0],[0.25,0,0],[0.5,0,0],[0.75,0,0],[1,0.25,0],[1,0.5,0],[1,0.75,0],[0.75,1,0],[0.5,1,0],[0.25,1,0],[0,0.75,0],[0,0.5,0],[0,0.25,0]];verticalLabelPosition=bottom;html=1;verticalAlign=top;aspect=fixed;align=center;pointerEvents=1;shape=mxgraph.cisco19.rect;prIcon=firewall;fillColor=#FAFAFA;strokeColor=#005073;" vertex="1" parent="1">
          <mxGeometry x="850" y="470" width="64" height="50" as="geometry" />
        </mxCell>
        <mxCell id="reH3xQaTDlYnY1mvFlY1-33" value="DPSGR203A15F" style="sketch=0;points=[[0.015,0.015,0],[0.985,0.015,0],[0.985,0.985,0],[0.015,0.985,0],[0.25,0,0],[0.5,0,0],[0.75,0,0],[1,0.25,0],[1,0.5,0],[1,0.75,0],[0.75,1,0],[0.5,1,0],[0.25,1,0],[0,0.75,0],[0,0.5,0],[0,0.25,0]];verticalLabelPosition=bottom;html=1;verticalAlign=top;aspect=fixed;align=center;pointerEvents=1;shape=mxgraph.cisco19.rect;prIcon=firewall;fillColor=#FAFAFA;strokeColor=#005073;" vertex="1" parent="1">
          <mxGeometry x="-120" y="410" width="64" height="50" as="geometry" />
        </mxCell>
        <mxCell id="reH3xQaTDlYnY1mvFlY1-75" style="edgeStyle=orthogonalEdgeStyle;rounded=0;orthogonalLoop=1;jettySize=auto;html=1;fontFamily=Helvetica;fontSize=12;fontColor=default;endArrow=oval;endFill=1;fillColor=#008a00;strokeColor=#005700;" edge="1" parent="1" source="reH3xQaTDlYnY1mvFlY1-34" target="reH3xQaTDlYnY1mvFlY1-63">
          <mxGeometry relative="1" as="geometry" />
        </mxCell>
        <mxCell id="reH3xQaTDlYnY1mvFlY1-34" value="ECHGR009A37F" style="sketch=0;points=[[0.015,0.015,0],[0.985,0.015,0],[0.985,0.985,0],[0.015,0.985,0],[0.25,0,0],[0.5,0,0],[0.75,0,0],[1,0.25,0],[1,0.5,0],[1,0.75,0],[0.75,1,0],[0.5,1,0],[0.25,1,0],[0,0.75,0],[0,0.5,0],[0,0.25,0]];verticalLabelPosition=bottom;html=1;verticalAlign=top;aspect=fixed;align=center;pointerEvents=1;shape=mxgraph.cisco19.rect;prIcon=firewall;fillColor=#FAFAFA;strokeColor=#005073;" vertex="1" parent="1">
          <mxGeometry x="530" y="-128.5" width="64" height="50" as="geometry" />
        </mxCell>
        <mxCell id="reH3xQaTDlYnY1mvFlY1-35" value="EHD1R128A28F" style="sketch=0;points=[[0.015,0.015,0],[0.985,0.015,0],[0.985,0.985,0],[0.015,0.985,0],[0.25,0,0],[0.5,0,0],[0.75,0,0],[1,0.25,0],[1,0.5,0],[1,0.75,0],[0.75,1,0],[0.5,1,0],[0.25,1,0],[0,0.75,0],[0,0.5,0],[0,0.25,0]];verticalLabelPosition=bottom;html=1;verticalAlign=top;aspect=fixed;align=center;pointerEvents=1;shape=mxgraph.cisco19.rect;prIcon=firewall;fillColor=#FAFAFA;strokeColor=#005073;" vertex="1" parent="1">
          <mxGeometry x="786" y="55" width="64" height="50" as="geometry" />
        </mxCell>
        <mxCell id="reH3xQaTDlYnY1mvFlY1-73" style="edgeStyle=orthogonalEdgeStyle;rounded=0;orthogonalLoop=1;jettySize=auto;html=1;exitX=0.5;exitY=1;exitDx=0;exitDy=0;exitPerimeter=0;endArrow=oval;endFill=1;fillColor=#008a00;strokeColor=#005700;" edge="1" parent="1" source="reH3xQaTDlYnY1mvFlY1-36" target="reH3xQaTDlYnY1mvFlY1-63">
          <mxGeometry relative="1" as="geometry">
            <Array as="points">
              <mxPoint x="612" y="-360" />
              <mxPoint x="555" y="-360" />
            </Array>
          </mxGeometry>
        </mxCell>
        <mxCell id="reH3xQaTDlYnY1mvFlY1-36" value="HRC8R812D01F" style="sketch=0;points=[[0.015,0.015,0],[0.985,0.015,0],[0.985,0.985,0],[0.015,0.985,0],[0.25,0,0],[0.5,0,0],[0.75,0,0],[1,0.25,0],[1,0.5,0],[1,0.75,0],[0.75,1,0],[0.5,1,0],[0.25,1,0],[0,0.75,0],[0,0.5,0],[0,0.25,0]];verticalLabelPosition=bottom;html=1;verticalAlign=top;aspect=fixed;align=center;pointerEvents=1;shape=mxgraph.cisco19.rect;prIcon=firewall;fillColor=#FAFAFA;strokeColor=#005073;" vertex="1" parent="1">
          <mxGeometry x="580" y="-480" width="64" height="50" as="geometry" />
        </mxCell>
        <mxCell id="reH3xQaTDlYnY1mvFlY1-37" value="INFGR203D45F" style="sketch=0;points=[[0.015,0.015,0],[0.985,0.015,0],[0.985,0.985,0],[0.015,0.985,0],[0.25,0,0],[0.5,0,0],[0.75,0,0],[1,0.25,0],[1,0.5,0],[1,0.75,0],[0.75,1,0],[0.5,1,0],[0.25,1,0],[0,0.75,0],[0,0.5,0],[0,0.25,0]];verticalLabelPosition=bottom;html=1;verticalAlign=top;aspect=fixed;align=center;pointerEvents=1;shape=mxgraph.cisco19.rect;prIcon=firewall;fillColor=#FAFAFA;strokeColor=#005073;" vertex="1" parent="1">
          <mxGeometry x="16" y="550" width="64" height="50" as="geometry" />
        </mxCell>
        <mxCell id="reH3xQaTDlYnY1mvFlY1-66" style="edgeStyle=orthogonalEdgeStyle;rounded=0;orthogonalLoop=1;jettySize=auto;html=1;endArrow=oval;endFill=1;fillColor=#d80073;strokeColor=#A50040;" edge="1" parent="1" source="reH3xQaTDlYnY1mvFlY1-38" target="reH3xQaTDlYnY1mvFlY1-62">
          <mxGeometry relative="1" as="geometry">
            <Array as="points">
              <mxPoint x="310" y="-380" />
              <mxPoint x="208" y="-380" />
            </Array>
          </mxGeometry>
        </mxCell>
        <mxCell id="reH3xQaTDlYnY1mvFlY1-70" style="edgeStyle=orthogonalEdgeStyle;rounded=0;orthogonalLoop=1;jettySize=auto;html=1;exitX=0.75;exitY=1;exitDx=0;exitDy=0;exitPerimeter=0;endArrow=oval;endFill=1;fillColor=#008a00;strokeColor=#005700;" edge="1" parent="1" source="reH3xQaTDlYnY1mvFlY1-38" target="reH3xQaTDlYnY1mvFlY1-63">
          <mxGeometry relative="1" as="geometry">
            <Array as="points">
              <mxPoint x="326" y="-360" />
              <mxPoint x="555" y="-360" />
            </Array>
          </mxGeometry>
        </mxCell>
        <mxCell id="reH3xQaTDlYnY1mvFlY1-38" value="LIN1R100A25F" style="sketch=0;points=[[0.015,0.015,0],[0.985,0.015,0],[0.985,0.985,0],[0.015,0.985,0],[0.25,0,0],[0.5,0,0],[0.75,0,0],[1,0.25,0],[1,0.5,0],[1,0.75,0],[0.75,1,0],[0.5,1,0],[0.25,1,0],[0,0.75,0],[0,0.5,0],[0,0.25,0]];verticalLabelPosition=bottom;html=1;verticalAlign=top;aspect=fixed;align=center;pointerEvents=1;shape=mxgraph.cisco19.rect;prIcon=firewall;fillColor=#FAFAFA;strokeColor=#005073;" vertex="1" parent="1">
          <mxGeometry x="278" y="-480" width="64" height="50" as="geometry" />
        </mxCell>
        <mxCell id="reH3xQaTDlYnY1mvFlY1-65" style="edgeStyle=orthogonalEdgeStyle;rounded=0;orthogonalLoop=1;jettySize=auto;html=1;endArrow=oval;endFill=1;fillColor=#d80073;strokeColor=#A50040;" edge="1" parent="1" source="reH3xQaTDlYnY1mvFlY1-39" target="reH3xQaTDlYnY1mvFlY1-62">
          <mxGeometry relative="1" as="geometry">
            <Array as="points">
              <mxPoint x="208" y="-370" />
              <mxPoint x="208" y="-370" />
            </Array>
          </mxGeometry>
        </mxCell>
        <mxCell id="reH3xQaTDlYnY1mvFlY1-69" style="edgeStyle=orthogonalEdgeStyle;rounded=0;orthogonalLoop=1;jettySize=auto;html=1;endArrow=oval;endFill=1;fillColor=#008a00;strokeColor=#005700;" edge="1" parent="1" source="reH3xQaTDlYnY1mvFlY1-39" target="reH3xQaTDlYnY1mvFlY1-63">
          <mxGeometry relative="1" as="geometry">
            <Array as="points">
              <mxPoint x="230" y="-360" />
              <mxPoint x="555" y="-360" />
            </Array>
          </mxGeometry>
        </mxCell>
        <mxCell id="reH3xQaTDlYnY1mvFlY1-39" value="MCK1R100A34F" style="sketch=0;points=[[0.015,0.015,0],[0.985,0.015,0],[0.985,0.985,0],[0.015,0.985,0],[0.25,0,0],[0.5,0,0],[0.75,0,0],[1,0.25,0],[1,0.5,0],[1,0.75,0],[0.75,1,0],[0.5,1,0],[0.25,1,0],[0,0.75,0],[0,0.5,0],[0,0.25,0]];verticalLabelPosition=bottom;html=1;verticalAlign=top;aspect=fixed;align=center;pointerEvents=1;shape=mxgraph.cisco19.rect;prIcon=firewall;fillColor=#FAFAFA;strokeColor=#005073;" vertex="1" parent="1">
          <mxGeometry x="179" y="-480" width="64" height="50" as="geometry" />
        </mxCell>
        <mxCell id="reH3xQaTDlYnY1mvFlY1-67" style="edgeStyle=orthogonalEdgeStyle;rounded=0;orthogonalLoop=1;jettySize=auto;html=1;endArrow=oval;endFill=1;fillColor=#d80073;strokeColor=#A50040;" edge="1" parent="1" source="reH3xQaTDlYnY1mvFlY1-40" target="reH3xQaTDlYnY1mvFlY1-62">
          <mxGeometry relative="1" as="geometry">
            <Array as="points">
              <mxPoint x="406" y="-380" />
              <mxPoint x="208" y="-380" />
            </Array>
          </mxGeometry>
        </mxCell>
        <mxCell id="reH3xQaTDlYnY1mvFlY1-71" style="edgeStyle=orthogonalEdgeStyle;rounded=0;orthogonalLoop=1;jettySize=auto;html=1;endArrow=oval;endFill=1;fillColor=#008a00;strokeColor=#005700;" edge="1" parent="1" source="reH3xQaTDlYnY1mvFlY1-40" target="reH3xQaTDlYnY1mvFlY1-63">
          <mxGeometry relative="1" as="geometry">
            <Array as="points">
              <mxPoint x="430" y="-360" />
              <mxPoint x="555" y="-360" />
            </Array>
          </mxGeometry>
        </mxCell>
        <mxCell id="reH3xQaTDlYnY1mvFlY1-40" value="EDB1R100A25F" style="sketch=0;points=[[0.015,0.015,0],[0.985,0.015,0],[0.985,0.985,0],[0.015,0.985,0],[0.25,0,0],[0.5,0,0],[0.75,0,0],[1,0.25,0],[1,0.5,0],[1,0.75,0],[0.75,1,0],[0.5,1,0],[0.25,1,0],[0,0.75,0],[0,0.5,0],[0,0.25,0]];verticalLabelPosition=bottom;html=1;verticalAlign=top;aspect=fixed;align=center;pointerEvents=1;shape=mxgraph.cisco19.rect;prIcon=firewall;fillColor=#FAFAFA;strokeColor=#005073;" vertex="1" parent="1">
          <mxGeometry x="374" y="-480" width="64" height="50" as="geometry" />
        </mxCell>
        <mxCell id="reH3xQaTDlYnY1mvFlY1-64" style="edgeStyle=orthogonalEdgeStyle;rounded=0;orthogonalLoop=1;jettySize=auto;html=1;endArrow=oval;endFill=1;fillColor=#d80073;strokeColor=#A50040;" edge="1" parent="1" source="reH3xQaTDlYnY1mvFlY1-41" target="reH3xQaTDlYnY1mvFlY1-62">
          <mxGeometry relative="1" as="geometry">
            <Array as="points">
              <mxPoint x="112" y="-380" />
              <mxPoint x="208" y="-380" />
            </Array>
          </mxGeometry>
        </mxCell>
        <mxCell id="reH3xQaTDlYnY1mvFlY1-68" style="edgeStyle=orthogonalEdgeStyle;rounded=0;orthogonalLoop=1;jettySize=auto;html=1;endArrow=oval;endFill=1;fillColor=#008a00;strokeColor=#005700;" edge="1" parent="1" source="reH3xQaTDlYnY1mvFlY1-41" target="reH3xQaTDlYnY1mvFlY1-63">
          <mxGeometry relative="1" as="geometry">
            <Array as="points">
              <mxPoint x="130" y="-360" />
              <mxPoint x="555" y="-360" />
            </Array>
          </mxGeometry>
        </mxCell>
        <mxCell id="reH3xQaTDlYnY1mvFlY1-41" value="IRQR100A25F" style="sketch=0;points=[[0.015,0.015,0],[0.985,0.015,0],[0.985,0.985,0],[0.015,0.985,0],[0.25,0,0],[0.5,0,0],[0.75,0,0],[1,0.25,0],[1,0.5,0],[1,0.75,0],[0.75,1,0],[0.5,1,0],[0.25,1,0],[0,0.75,0],[0,0.5,0],[0,0.25,0]];verticalLabelPosition=bottom;html=1;verticalAlign=top;aspect=fixed;align=center;pointerEvents=1;shape=mxgraph.cisco19.rect;prIcon=firewall;fillColor=#FAFAFA;strokeColor=#005073;" vertex="1" parent="1">
          <mxGeometry x="80" y="-480" width="64" height="50" as="geometry" />
        </mxCell>
        <mxCell id="reH3xQaTDlYnY1mvFlY1-42" value="INFGR203D46F" style="sketch=0;points=[[0.015,0.015,0],[0.985,0.015,0],[0.985,0.985,0],[0.015,0.985,0],[0.25,0,0],[0.5,0,0],[0.75,0,0],[1,0.25,0],[1,0.5,0],[1,0.75,0],[0.75,1,0],[0.5,1,0],[0.25,1,0],[0,0.75,0],[0,0.5,0],[0,0.25,0]];verticalLabelPosition=bottom;html=1;verticalAlign=top;aspect=fixed;align=center;pointerEvents=1;shape=mxgraph.cisco19.rect;prIcon=firewall;fillColor=#FAFAFA;strokeColor=#005073;" vertex="1" parent="1">
          <mxGeometry x="-80" y="550" width="64" height="50" as="geometry" />
        </mxCell>
        <mxCell id="reH3xQaTDlYnY1mvFlY1-62" value="" style="shadow=0;dashed=0;html=1;strokeColor=none;fillColor=#4495D1;labelPosition=center;verticalLabelPosition=bottom;verticalAlign=top;align=center;outlineConnect=0;shape=mxgraph.veeam.vpn;" vertex="1" parent="1">
          <mxGeometry x="126" y="-280" width="164" height="98" as="geometry" />
        </mxCell>
        <mxCell id="reH3xQaTDlYnY1mvFlY1-63" value="" style="shadow=0;dashed=0;html=1;strokeColor=none;fillColor=#4495D1;labelPosition=center;verticalLabelPosition=bottom;verticalAlign=top;align=center;outlineConnect=0;shape=mxgraph.veeam.vpn;" vertex="1" parent="1">
          <mxGeometry x="473" y="-280" width="164" height="98" as="geometry" />
        </mxCell>
        <mxCell id="reH3xQaTDlYnY1mvFlY1-76" value="" style="sketch=0;points=[[0.015,0.015,0],[0.985,0.015,0],[0.985,0.985,0],[0.015,0.985,0],[0.25,0,0],[0.5,0,0],[0.75,0,0],[1,0.25,0],[1,0.5,0],[1,0.75,0],[0.75,1,0],[0.5,1,0],[0.25,1,0],[0,0.75,0],[0,0.5,0],[0,0.25,0]];verticalLabelPosition=bottom;html=1;verticalAlign=top;aspect=fixed;align=center;pointerEvents=1;shape=mxgraph.cisco19.rect;prIcon=l2_switch;fillColor=#FAFAFA;strokeColor=#005073;fontFamily=Helvetica;fontSize=12;fontColor=default;" vertex="1" parent="1">
          <mxGeometry x="87" y="-560" width="50" height="50" as="geometry" />
        </mxCell>
        <mxCell id="reH3xQaTDlYnY1mvFlY1-77" value="" style="sketch=0;points=[[0.015,0.015,0],[0.985,0.015,0],[0.985,0.985,0],[0.015,0.985,0],[0.25,0,0],[0.5,0,0],[0.75,0,0],[1,0.25,0],[1,0.5,0],[1,0.75,0],[0.75,1,0],[0.5,1,0],[0.25,1,0],[0,0.75,0],[0,0.5,0],[0,0.25,0]];verticalLabelPosition=bottom;html=1;verticalAlign=top;aspect=fixed;align=center;pointerEvents=1;shape=mxgraph.cisco19.rect;prIcon=l2_switch;fillColor=#FAFAFA;strokeColor=#005073;fontFamily=Helvetica;fontSize=12;fontColor=default;" vertex="1" parent="1">
          <mxGeometry x="183" y="-560" width="50" height="50" as="geometry" />
        </mxCell>
        <mxCell id="reH3xQaTDlYnY1mvFlY1-78" value="" style="sketch=0;points=[[0.015,0.015,0],[0.985,0.015,0],[0.985,0.985,0],[0.015,0.985,0],[0.25,0,0],[0.5,0,0],[0.75,0,0],[1,0.25,0],[1,0.5,0],[1,0.75,0],[0.75,1,0],[0.5,1,0],[0.25,1,0],[0,0.75,0],[0,0.5,0],[0,0.25,0]];verticalLabelPosition=bottom;html=1;verticalAlign=top;aspect=fixed;align=center;pointerEvents=1;shape=mxgraph.cisco19.rect;prIcon=l2_switch;fillColor=#FAFAFA;strokeColor=#005073;fontFamily=Helvetica;fontSize=12;fontColor=default;" vertex="1" parent="1">
          <mxGeometry x="285" y="-560" width="50" height="50" as="geometry" />
        </mxCell>
        <mxCell id="reH3xQaTDlYnY1mvFlY1-79" value="" style="sketch=0;points=[[0.015,0.015,0],[0.985,0.015,0],[0.985,0.985,0],[0.015,0.985,0],[0.25,0,0],[0.5,0,0],[0.75,0,0],[1,0.25,0],[1,0.5,0],[1,0.75,0],[0.75,1,0],[0.5,1,0],[0.25,1,0],[0,0.75,0],[0,0.5,0],[0,0.25,0]];verticalLabelPosition=bottom;html=1;verticalAlign=top;aspect=fixed;align=center;pointerEvents=1;shape=mxgraph.cisco19.rect;prIcon=l2_switch;fillColor=#FAFAFA;strokeColor=#005073;fontFamily=Helvetica;fontSize=12;fontColor=default;" vertex="1" parent="1">
          <mxGeometry x="381" y="-560" width="50" height="50" as="geometry" />
        </mxCell>
        <mxCell id="reH3xQaTDlYnY1mvFlY1-80" value="" style="sketch=0;points=[[0.015,0.015,0],[0.985,0.015,0],[0.985,0.985,0],[0.015,0.985,0],[0.25,0,0],[0.5,0,0],[0.75,0,0],[1,0.25,0],[1,0.5,0],[1,0.75,0],[0.75,1,0],[0.5,1,0],[0.25,1,0],[0,0.75,0],[0,0.5,0],[0,0.25,0]];verticalLabelPosition=bottom;html=1;verticalAlign=top;aspect=fixed;align=center;pointerEvents=1;shape=mxgraph.cisco19.rect;prIcon=l2_switch;fillColor=#FAFAFA;strokeColor=#005073;fontFamily=Helvetica;fontSize=12;fontColor=default;" vertex="1" parent="1">
          <mxGeometry x="587" y="-560" width="50" height="50" as="geometry" />
        </mxCell>
      </root>
    </mxGraphModel>
  </diagram>
</mxfile>
